<svg width="60" height="60" viewBox="0 0 60 60" fill="none" xmlns="http://www.w3.org/2000/svg">
<path d="M28.4393 40.0607C29.0251 40.6464 29.9749 40.6464 30.5607 40.0607L40.1066 30.5147C40.6924 29.9289 40.6924 28.9792 40.1066 28.3934C39.5208 27.8076 38.5711 27.8076 37.9853 28.3934L29.5 36.8787L21.0147 28.3934C20.4289 27.8076 19.4792 27.8076 18.8934 28.3934C18.3076 28.9792 18.3076 29.9289 18.8934 30.5147L28.4393 40.0607ZM29.5 11H28V39H29.5H31V11H29.5Z" fill="black"/>
<line x1="14.5" y1="36" x2="14.5" y2="50" stroke="black" stroke-width="3"/>
<path d="M45 36V50" stroke="black" stroke-width="3"/>
<line x1="13" y1="48.5" x2="46" y2="48.5" stroke="black" stroke-width="3"/>
</svg>
